<svg width="427" height="369" viewBox="0 0 427 369" fill="none" xmlns="http://www.w3.org/2000/svg">
<g filter="url(#filter0_i_902_656)">
<path d="M98.9989 -1110C98.9989 -1090.23 637.32 -883.523 259 -957C-294.5 -1064.5 259.501 -878 322.001 -783C360.51 -724.465 -62.8067 -606.064 63.2377 -588.5C195.995 -570 629.291 -754.231 106.999 -388C-18.5005 -300 19.001 -243 250.001 -189.5C446.014 -144.103 425.001 7.57194 307.999 54.0002C-539.999 390.5 952.499 63.5002 94.4984 421.5C-75.3 492.348 586.001 639 323.501 630C133.021 623.469 -108.999 575.5 301.501 819C584.501 945 -338.5 888 236.501 1023.5C811.502 1159 -379 1190 220.501 1347C820.002 1504 -435.499 1415 281.001 1650.5" stroke="#0B3238" stroke-opacity="0.6" stroke-width="7.05436"/>
</g>
<g filter="url(#filter1_bi_902_656)">
<ellipse cx="121.026" cy="134.8" rx="13.1562" ry="13.0744" fill="url(#paint0_linear_902_656)"/>
<path d="M132.089 134.8C132.089 140.852 127.149 145.781 121.026 145.781C114.904 145.781 109.963 140.852 109.963 134.8C109.963 128.747 114.904 123.819 121.026 123.819C127.149 123.819 132.089 128.747 132.089 134.8Z" stroke="url(#paint1_angular_902_656)" stroke-opacity="0.7" stroke-width="4.18625"/>
</g>
<path d="M120.959 150.113C129.429 150.113 136.299 143.289 136.299 134.866C136.299 126.443 129.429 119.619 120.959 119.619C112.49 119.619 105.619 126.443 105.619 134.866C105.619 143.289 112.49 150.113 120.959 150.113Z" stroke="url(#paint2_angular_902_656)" stroke-opacity="0.7" stroke-width="0.761137"/>
<g filter="url(#filter2_bi_902_656)">
<ellipse cx="42.408" cy="196.435" rx="13.49" ry="12.7522" fill="url(#paint3_linear_902_656)"/>
<path d="M53.8048 196.435C53.8048 202.213 48.8147 207.094 42.408 207.094C36.0012 207.094 31.0111 202.213 31.0111 196.435C31.0111 190.658 36.0012 185.776 42.408 185.776C48.8147 185.776 53.8048 190.658 53.8048 196.435Z" stroke="url(#paint4_angular_902_656)" stroke-opacity="0.7" stroke-width="4.18625"/>
</g>
<path d="M42.3389 211.381C51 211.381 58.0583 204.738 58.0583 196.5C58.0583 188.262 51 181.619 42.3389 181.619C33.6777 181.619 26.6194 188.262 26.6194 196.5C26.6194 204.738 33.6777 211.381 42.3389 211.381Z" stroke="url(#paint5_angular_902_656)" stroke-opacity="0.7" stroke-width="0.761137"/>
<g filter="url(#filter3_bi_902_656)">
<ellipse cx="144.406" cy="225.8" rx="13.4891" ry="13.0744" fill="url(#paint6_linear_902_656)"/>
<path d="M155.802 225.8C155.802 231.804 150.762 236.781 144.406 236.781C138.05 236.781 133.01 231.804 133.01 225.8C133.01 219.796 138.05 214.819 144.406 214.819C150.762 214.819 155.802 219.796 155.802 225.8Z" stroke="url(#paint7_angular_902_656)" stroke-opacity="0.7" stroke-width="4.18625"/>
</g>
<path d="M144.338 241.113C153.008 241.113 160.056 234.298 160.056 225.866C160.056 217.435 153.008 210.619 144.338 210.619C135.668 210.619 128.619 217.435 128.619 225.866C128.619 234.298 135.668 241.113 144.338 241.113Z" stroke="url(#paint8_angular_902_656)" stroke-opacity="0.7" stroke-width="0.761137"/>
<g filter="url(#filter4_bi_902_656)">
<ellipse cx="256.823" cy="229.866" rx="13.8546" ry="13.1331" fill="url(#paint9_linear_902_656)"/>
<path d="M268.585 229.866C268.585 235.86 263.426 240.906 256.823 240.906C250.221 240.906 245.062 235.86 245.062 229.866C245.062 223.873 250.221 218.826 256.823 218.826C263.426 218.826 268.585 223.873 268.585 229.866Z" stroke="url(#paint10_angular_902_656)" stroke-opacity="0.7" stroke-width="4.18625"/>
</g>
<path d="M256.753 245.247C265.645 245.247 272.887 238.409 272.887 229.933C272.887 221.457 265.645 214.619 256.753 214.619C247.862 214.619 240.619 221.457 240.619 229.933C240.619 238.409 247.862 245.247 256.753 245.247Z" stroke="url(#paint11_angular_902_656)" stroke-opacity="0.7" stroke-width="0.761137"/>
<g filter="url(#filter5_bi_902_656)">
<ellipse cx="363.823" cy="255.866" rx="13.8546" ry="13.1331" fill="url(#paint12_linear_902_656)"/>
<path d="M375.585 255.866C375.585 261.86 370.426 266.906 363.823 266.906C357.221 266.906 352.062 261.86 352.062 255.866C352.062 249.873 357.221 244.826 363.823 244.826C370.426 244.826 375.585 249.873 375.585 255.866Z" stroke="url(#paint13_angular_902_656)" stroke-opacity="0.7" stroke-width="4.18625"/>
</g>
<path d="M363.753 271.247C372.645 271.247 379.887 264.409 379.887 255.933C379.887 247.457 372.645 240.619 363.753 240.619C354.862 240.619 347.619 247.457 347.619 255.933C347.619 264.409 354.862 271.247 363.753 271.247Z" stroke="url(#paint14_angular_902_656)" stroke-opacity="0.7" stroke-width="0.761137"/>
<defs>
<filter id="filter0_i_902_656" x="11.8506" y="-1110.88" width="390.314" height="2764.88" filterUnits="userSpaceOnUse" color-interpolation-filters="sRGB">
<feFlood flood-opacity="0" result="BackgroundImageFix"/>
<feBlend mode="normal" in="SourceGraphic" in2="BackgroundImageFix" result="shape"/>
<feColorMatrix in="SourceAlpha" type="matrix" values="0 0 0 0 0 0 0 0 0 0 0 0 0 0 0 0 0 0 127 0" result="hardAlpha"/>
<feOffset dx="0.460067" dy="0.153356"/>
<feGaussianBlur stdDeviation="1.04282"/>
<feComposite in2="hardAlpha" operator="arithmetic" k2="-1" k3="1"/>
<feColorMatrix type="matrix" values="0 0 0 0 1 0 0 0 0 1 0 0 0 0 1 0 0 0 1 0"/>
<feBlend mode="normal" in2="shape" result="effect1_innerShadow_902_656"/>
</filter>
<filter id="filter1_bi_902_656" x="103.037" y="116.892" width="35.9789" height="35.8153" filterUnits="userSpaceOnUse" color-interpolation-filters="sRGB">
<feFlood flood-opacity="0" result="BackgroundImageFix"/>
<feGaussianBlur in="BackgroundImageFix" stdDeviation="2.41661"/>
<feComposite in2="SourceAlpha" operator="in" result="effect1_backgroundBlur_902_656"/>
<feBlend mode="normal" in="SourceGraphic" in2="effect1_backgroundBlur_902_656" result="shape"/>
<feColorMatrix in="SourceAlpha" type="matrix" values="0 0 0 0 0 0 0 0 0 0 0 0 0 0 0 0 0 0 127 0" result="hardAlpha"/>
<feMorphology radius="3.42512" operator="erode" in="SourceAlpha" result="effect2_innerShadow_902_656"/>
<feOffset dy="-0.887993"/>
<feComposite in2="hardAlpha" operator="arithmetic" k2="-1" k3="1"/>
<feColorMatrix type="matrix" values="0 0 0 0 0 0 0 0 0 0 0 0 0 0 0 0 0 0 0.25 0"/>
<feBlend mode="normal" in2="shape" result="effect2_innerShadow_902_656"/>
</filter>
<filter id="filter2_bi_902_656" x="24.0847" y="178.85" width="36.6459" height="35.1709" filterUnits="userSpaceOnUse" color-interpolation-filters="sRGB">
<feFlood flood-opacity="0" result="BackgroundImageFix"/>
<feGaussianBlur in="BackgroundImageFix" stdDeviation="2.41661"/>
<feComposite in2="SourceAlpha" operator="in" result="effect1_backgroundBlur_902_656"/>
<feBlend mode="normal" in="SourceGraphic" in2="effect1_backgroundBlur_902_656" result="shape"/>
<feColorMatrix in="SourceAlpha" type="matrix" values="0 0 0 0 0 0 0 0 0 0 0 0 0 0 0 0 0 0 127 0" result="hardAlpha"/>
<feMorphology radius="3.42512" operator="erode" in="SourceAlpha" result="effect2_innerShadow_902_656"/>
<feOffset dy="-0.887993"/>
<feComposite in2="hardAlpha" operator="arithmetic" k2="-1" k3="1"/>
<feColorMatrix type="matrix" values="0 0 0 0 0 0 0 0 0 0 0 0 0 0 0 0 0 0 0.25 0"/>
<feBlend mode="normal" in2="shape" result="effect2_innerShadow_902_656"/>
</filter>
<filter id="filter3_bi_902_656" x="126.084" y="207.892" width="36.645" height="35.8153" filterUnits="userSpaceOnUse" color-interpolation-filters="sRGB">
<feFlood flood-opacity="0" result="BackgroundImageFix"/>
<feGaussianBlur in="BackgroundImageFix" stdDeviation="2.41661"/>
<feComposite in2="SourceAlpha" operator="in" result="effect1_backgroundBlur_902_656"/>
<feBlend mode="normal" in="SourceGraphic" in2="effect1_backgroundBlur_902_656" result="shape"/>
<feColorMatrix in="SourceAlpha" type="matrix" values="0 0 0 0 0 0 0 0 0 0 0 0 0 0 0 0 0 0 127 0" result="hardAlpha"/>
<feMorphology radius="3.42512" operator="erode" in="SourceAlpha" result="effect2_innerShadow_902_656"/>
<feOffset dy="-0.887993"/>
<feComposite in2="hardAlpha" operator="arithmetic" k2="-1" k3="1"/>
<feColorMatrix type="matrix" values="0 0 0 0 0 0 0 0 0 0 0 0 0 0 0 0 0 0 0.25 0"/>
<feBlend mode="normal" in2="shape" result="effect2_innerShadow_902_656"/>
</filter>
<filter id="filter4_bi_902_656" x="238.136" y="211.9" width="37.3754" height="35.9326" filterUnits="userSpaceOnUse" color-interpolation-filters="sRGB">
<feFlood flood-opacity="0" result="BackgroundImageFix"/>
<feGaussianBlur in="BackgroundImageFix" stdDeviation="2.41661"/>
<feComposite in2="SourceAlpha" operator="in" result="effect1_backgroundBlur_902_656"/>
<feBlend mode="normal" in="SourceGraphic" in2="effect1_backgroundBlur_902_656" result="shape"/>
<feColorMatrix in="SourceAlpha" type="matrix" values="0 0 0 0 0 0 0 0 0 0 0 0 0 0 0 0 0 0 127 0" result="hardAlpha"/>
<feMorphology radius="3.42512" operator="erode" in="SourceAlpha" result="effect2_innerShadow_902_656"/>
<feOffset dy="-0.887993"/>
<feComposite in2="hardAlpha" operator="arithmetic" k2="-1" k3="1"/>
<feColorMatrix type="matrix" values="0 0 0 0 0 0 0 0 0 0 0 0 0 0 0 0 0 0 0.25 0"/>
<feBlend mode="normal" in2="shape" result="effect2_innerShadow_902_656"/>
</filter>
<filter id="filter5_bi_902_656" x="345.136" y="237.9" width="37.3754" height="35.9326" filterUnits="userSpaceOnUse" color-interpolation-filters="sRGB">
<feFlood flood-opacity="0" result="BackgroundImageFix"/>
<feGaussianBlur in="BackgroundImageFix" stdDeviation="2.41661"/>
<feComposite in2="SourceAlpha" operator="in" result="effect1_backgroundBlur_902_656"/>
<feBlend mode="normal" in="SourceGraphic" in2="effect1_backgroundBlur_902_656" result="shape"/>
<feColorMatrix in="SourceAlpha" type="matrix" values="0 0 0 0 0 0 0 0 0 0 0 0 0 0 0 0 0 0 127 0" result="hardAlpha"/>
<feMorphology radius="3.42512" operator="erode" in="SourceAlpha" result="effect2_innerShadow_902_656"/>
<feOffset dy="-0.887993"/>
<feComposite in2="hardAlpha" operator="arithmetic" k2="-1" k3="1"/>
<feColorMatrix type="matrix" values="0 0 0 0 0 0 0 0 0 0 0 0 0 0 0 0 0 0 0.25 0"/>
<feBlend mode="normal" in2="shape" result="effect2_innerShadow_902_656"/>
</filter>
<linearGradient id="paint0_linear_902_656" x1="121.026" y1="121.726" x2="121.026" y2="147.874" gradientUnits="userSpaceOnUse">
<stop stop-color="#1E97EE"/>
<stop offset="1" stop-color="#103E54"/>
</linearGradient>
<radialGradient id="paint1_angular_902_656" cx="0" cy="0" r="1" gradientUnits="userSpaceOnUse" gradientTransform="translate(118.56 134.906) rotate(-131.091) scale(10.3492 10.0841)">
<stop offset="0.34772" stop-color="#002E4B" stop-opacity="0"/>
<stop offset="0.569" stop-color="#5FC7FF"/>
<stop offset="0.600057" stop-color="#89CEFF"/>
<stop offset="0.655752" stop-color="#55C9FF"/>
<stop offset="0.722092" stop-color="#78D4FF"/>
<stop offset="0.864106" stop-color="#73C9F1" stop-opacity="0"/>
</radialGradient>
<radialGradient id="paint2_angular_902_656" cx="0" cy="0" r="1" gradientUnits="userSpaceOnUse" gradientTransform="translate(118.154 134.987) rotate(-131.091) scale(11.7676 11.4661)">
<stop offset="0.34772" stop-color="#002E4B" stop-opacity="0"/>
<stop offset="0.569" stop-color="#5FC7FF"/>
<stop offset="0.600057" stop-color="#89CEFF"/>
<stop offset="0.655752" stop-color="#55C9FF"/>
<stop offset="0.722092" stop-color="#78D4FF"/>
<stop offset="0.864106" stop-color="#73C9F1" stop-opacity="0"/>
</radialGradient>
<linearGradient id="paint3_linear_902_656" x1="42.408" y1="183.683" x2="42.408" y2="209.187" gradientUnits="userSpaceOnUse">
<stop stop-color="#1E97EE"/>
<stop offset="1" stop-color="#103E54"/>
</linearGradient>
<radialGradient id="paint4_angular_902_656" cx="0" cy="0" r="1" gradientUnits="userSpaceOnUse" gradientTransform="translate(39.8786 196.539) rotate(-132.515) scale(10.3209 10.1127)">
<stop offset="0.34772" stop-color="#002E4B" stop-opacity="0"/>
<stop offset="0.569" stop-color="#5FC7FF"/>
<stop offset="0.600057" stop-color="#89CEFF"/>
<stop offset="0.655752" stop-color="#55C9FF"/>
<stop offset="0.722092" stop-color="#78D4FF"/>
<stop offset="0.864106" stop-color="#73C9F1" stop-opacity="0"/>
</radialGradient>
<radialGradient id="paint5_angular_902_656" cx="0" cy="0" r="1" gradientUnits="userSpaceOnUse" gradientTransform="translate(39.4628 196.618) rotate(-132.515) scale(11.7354 11.4987)">
<stop offset="0.34772" stop-color="#002E4B" stop-opacity="0"/>
<stop offset="0.569" stop-color="#5FC7FF"/>
<stop offset="0.600057" stop-color="#89CEFF"/>
<stop offset="0.655752" stop-color="#55C9FF"/>
<stop offset="0.722092" stop-color="#78D4FF"/>
<stop offset="0.864106" stop-color="#73C9F1" stop-opacity="0"/>
</radialGradient>
<linearGradient id="paint6_linear_902_656" x1="144.406" y1="212.726" x2="144.406" y2="238.874" gradientUnits="userSpaceOnUse">
<stop stop-color="#1E97EE"/>
<stop offset="1" stop-color="#103E54"/>
</linearGradient>
<radialGradient id="paint7_angular_902_656" cx="0" cy="0" r="1" gradientUnits="userSpaceOnUse" gradientTransform="translate(141.877 225.906) rotate(-131.802) scale(10.4631 10.2267)">
<stop offset="0.34772" stop-color="#002E4B" stop-opacity="0"/>
<stop offset="0.569" stop-color="#5FC7FF"/>
<stop offset="0.600057" stop-color="#89CEFF"/>
<stop offset="0.655752" stop-color="#55C9FF"/>
<stop offset="0.722092" stop-color="#78D4FF"/>
<stop offset="0.864106" stop-color="#73C9F1" stop-opacity="0"/>
</radialGradient>
<radialGradient id="paint8_angular_902_656" cx="0" cy="0" r="1" gradientUnits="userSpaceOnUse" gradientTransform="translate(141.462 225.987) rotate(-131.802) scale(11.8971 11.6283)">
<stop offset="0.34772" stop-color="#002E4B" stop-opacity="0"/>
<stop offset="0.569" stop-color="#5FC7FF"/>
<stop offset="0.600057" stop-color="#89CEFF"/>
<stop offset="0.655752" stop-color="#55C9FF"/>
<stop offset="0.722092" stop-color="#78D4FF"/>
<stop offset="0.864106" stop-color="#73C9F1" stop-opacity="0"/>
</radialGradient>
<linearGradient id="paint9_linear_902_656" x1="256.823" y1="216.733" x2="256.823" y2="242.999" gradientUnits="userSpaceOnUse">
<stop stop-color="#1E97EE"/>
<stop offset="1" stop-color="#103E54"/>
</linearGradient>
<radialGradient id="paint10_angular_902_656" cx="0" cy="0" r="1" gradientUnits="userSpaceOnUse" gradientTransform="translate(254.226 229.973) rotate(-132.436) scale(10.6158 10.3991)">
<stop offset="0.34772" stop-color="#002E4B" stop-opacity="0"/>
<stop offset="0.569" stop-color="#5FC7FF"/>
<stop offset="0.600057" stop-color="#89CEFF"/>
<stop offset="0.655752" stop-color="#55C9FF"/>
<stop offset="0.722092" stop-color="#78D4FF"/>
<stop offset="0.864106" stop-color="#73C9F1" stop-opacity="0"/>
</radialGradient>
<radialGradient id="paint11_angular_902_656" cx="0" cy="0" r="1" gradientUnits="userSpaceOnUse" gradientTransform="translate(253.8 230.054) rotate(-132.436) scale(12.0707 11.8243)">
<stop offset="0.34772" stop-color="#002E4B" stop-opacity="0"/>
<stop offset="0.569" stop-color="#5FC7FF"/>
<stop offset="0.600057" stop-color="#89CEFF"/>
<stop offset="0.655752" stop-color="#55C9FF"/>
<stop offset="0.722092" stop-color="#78D4FF"/>
<stop offset="0.864106" stop-color="#73C9F1" stop-opacity="0"/>
</radialGradient>
<linearGradient id="paint12_linear_902_656" x1="363.823" y1="242.733" x2="363.823" y2="268.999" gradientUnits="userSpaceOnUse">
<stop stop-color="#1E97EE"/>
<stop offset="1" stop-color="#103E54"/>
</linearGradient>
<radialGradient id="paint13_angular_902_656" cx="0" cy="0" r="1" gradientUnits="userSpaceOnUse" gradientTransform="translate(361.226 255.973) rotate(-132.436) scale(10.6158 10.3991)">
<stop offset="0.34772" stop-color="#002E4B" stop-opacity="0"/>
<stop offset="0.569" stop-color="#5FC7FF"/>
<stop offset="0.600057" stop-color="#89CEFF"/>
<stop offset="0.655752" stop-color="#55C9FF"/>
<stop offset="0.722092" stop-color="#78D4FF"/>
<stop offset="0.864106" stop-color="#73C9F1" stop-opacity="0"/>
</radialGradient>
<radialGradient id="paint14_angular_902_656" cx="0" cy="0" r="1" gradientUnits="userSpaceOnUse" gradientTransform="translate(360.8 256.054) rotate(-132.436) scale(12.0707 11.8243)">
<stop offset="0.34772" stop-color="#002E4B" stop-opacity="0"/>
<stop offset="0.569" stop-color="#5FC7FF"/>
<stop offset="0.600057" stop-color="#89CEFF"/>
<stop offset="0.655752" stop-color="#55C9FF"/>
<stop offset="0.722092" stop-color="#78D4FF"/>
<stop offset="0.864106" stop-color="#73C9F1" stop-opacity="0"/>
</radialGradient>
</defs>
</svg>
